<svg width="63" height="63" viewBox="0 0 63 63" fill="none" xmlns="http://www.w3.org/2000/svg">
<path d="M31.4717 62.801C48.853 62.801 62.9434 48.7425 62.9434 31.4005C62.9434 14.0585 48.853 0 31.4717 0C14.0904 0 0 14.0585 0 31.4005C0 48.7425 14.0904 62.801 31.4717 62.801Z" fill="white"/>
<path fill-rule="evenodd" clip-rule="evenodd" d="M45.1622 34.3694C44.4719 34.7983 43.659 34.8515 43.041 34.5089C42.2561 34.0733 41.8245 33.053 41.8245 31.6341V27.389C41.8245 25.3389 41 23.8802 39.6212 23.4863C37.2847 22.8172 35.5275 25.6276 34.8671 26.6828L30.7465 33.2504V25.2233C30.7001 23.3762 30.09 22.2715 28.9313 21.9384C28.1647 21.7182 27.0177 21.8066 25.9036 23.4826L16.6715 38.0545C15.4356 35.7481 14.7913 33.18 14.7946 30.5731C14.7946 21.7951 21.9509 14.6544 30.7465 14.6544C39.5421 14.6544 46.6973 21.7951 46.6973 30.5731C46.6973 30.5883 46.7012 30.6016 46.7021 30.6157C46.7021 30.6309 46.6993 30.6442 46.7003 30.6594C46.7833 32.3593 46.2234 33.7107 45.1622 34.3694ZM50.2416 30.574V30.5293L50.2407 30.4858C50.1915 19.7954 41.4663 11.1172 30.7456 11.1172C19.9966 11.1172 11.2503 19.8447 11.2503 30.5731C11.2503 41.3003 19.9966 50.029 30.7465 50.029C35.6792 50.029 40.3869 48.1858 44.0007 44.8403C44.7191 44.1761 44.7616 43.0571 44.0952 42.3415C43.9385 42.1716 43.7489 42.0341 43.5372 41.937C43.3256 41.8401 43.0967 41.7856 42.8634 41.7767C42.6301 41.768 42.3974 41.8049 42.1789 41.8856C41.9605 41.9663 41.7605 42.0889 41.5909 42.2466C38.6616 44.9732 34.7806 46.4924 30.7465 46.4917C26.0368 46.4917 21.7993 44.4427 18.8767 41.1932L27.2021 28.0523V34.1103C27.2021 37.02 28.35 37.9606 29.3128 38.2359C30.2763 38.5111 31.7486 38.3232 33.2943 35.8556L37.8736 28.5582C38.0205 28.3229 38.1556 28.1198 38.2792 27.9441V31.6341C38.2792 34.3542 39.3876 36.5294 41.3196 37.6009C43.0614 38.567 45.2509 38.4798 47.0353 37.3732C49.1979 36.0302 50.3633 33.5559 50.2416 30.574Z" fill="#6A7BE9"/>
</svg>
