<svg width="63" height="63" viewBox="0 0 63 63" fill="none" xmlns="http://www.w3.org/2000/svg">
<path d="M31.4005 62.801C48.7425 62.801 62.801 48.7425 62.801 31.4005C62.801 14.0585 48.7425 0 31.4005 0C14.0585 0 0 14.0585 0 31.4005C0 48.7425 14.0585 62.801 31.4005 62.801Z" fill="white"/>
<path d="M38.9223 15.7058L35.3594 15.6992C31.3565 15.6992 28.7698 18.7324 28.7698 23.427V26.9899H25.1873C24.8779 26.9899 24.6272 27.2767 24.6272 27.6306V32.7929C24.6272 33.1466 24.8781 33.4331 25.1873 33.4331H28.7698V46.4595C28.7698 46.8132 29.0203 47.0998 29.33 47.0998H34.004C34.3134 47.0998 34.5641 46.813 34.5641 46.4595V33.4331H38.7527C39.0623 33.4331 39.3131 33.1466 39.3131 32.7929L39.3147 27.6306C39.3147 27.4607 39.2556 27.298 39.1507 27.1777C39.0457 27.0575 38.9028 26.9899 38.7542 26.9899H34.5641V23.9696C34.5641 22.5178 34.8669 21.7809 36.5216 21.7809L38.9217 21.7799C39.231 21.7799 39.4817 21.4931 39.4817 21.1396V16.346C39.4817 15.9929 39.2313 15.7064 38.9223 15.7058Z" fill="#6A7BE9"/>
</svg>
