<svg width="64" height="64" viewBox="0 0 64 64" fill="none" xmlns="http://www.w3.org/2000/svg">
<g filter="url(#filter0_d)">
<path d="M7.69513 26.068L18.0398 24.0188C20.2442 23.5821 22.1633 22.2384 23.3277 20.3162L26.75 14.6667L30.2894 8.82388C31.0678 7.53886 32.9322 7.53886 33.7106 8.82387L40.6723 20.3162C41.8367 22.2384 43.7558 23.5821 45.9603 24.0188L56.3049 26.068C57.8777 26.3796 58.4628 28.3225 57.3237 29.4509L49.0662 37.6297C47.1524 39.5252 46.321 42.2566 46.8542 44.8969L48.6926 54.0016C49.0217 55.6312 47.3344 56.9275 45.8446 56.1897L35.5504 51.0916C33.3131 49.9836 30.6869 49.9836 28.4496 51.0916L18.1554 56.1897C16.6656 56.9275 14.9783 55.6312 15.3074 54.0016L17.1458 44.897C17.679 42.2566 16.8476 39.5252 14.9338 37.6297L6.67634 29.4509C5.53716 28.3225 6.1223 26.3796 7.69513 26.068Z" fill="#2F80ED"/>
</g>
<defs>
<filter id="filter0_d" x="4.08203" y="5.86035" width="59.8359" height="56.5418" filterUnits="userSpaceOnUse" color-interpolation-filters="sRGB">
<feFlood flood-opacity="0" result="BackgroundImageFix"/>
<feColorMatrix in="SourceAlpha" type="matrix" values="0 0 0 0 0 0 0 0 0 0 0 0 0 0 0 0 0 0 127 0"/>
<feOffset dx="2" dy="2"/>
<feGaussianBlur stdDeviation="2"/>
<feColorMatrix type="matrix" values="0 0 0 0 0.183333 0 0 0 0 0.0290278 0 0 0 0 0.140128 0 0 0 0.4 0"/>
<feBlend mode="normal" in2="BackgroundImageFix" result="effect1_dropShadow"/>
<feBlend mode="normal" in="SourceGraphic" in2="effect1_dropShadow" result="shape"/>
</filter>
</defs>
</svg>
