<svg width="64" height="64" viewBox="0 0 64 64" fill="none" xmlns="http://www.w3.org/2000/svg">
<g filter="url(#filter0_d)">
<path d="M32 29.1111C38.3507 29.1111 43.499 23.9375 43.499 17.5556C43.499 11.1736 38.3507 6 32 6C25.6493 6 20.5011 11.1736 20.5011 17.5556C20.5011 23.9375 25.6493 29.1111 32 29.1111Z" fill="#2F80ED"/>
<path d="M32 34.8889C24.739 34.8889 18.1067 37.5941 13.0468 42.0564C10.3873 44.4017 10.3873 48.4872 13.0468 50.8325C18.1067 55.2948 24.739 58 32 58C39.261 58 45.8933 55.2948 50.9532 50.8325C53.6127 48.4872 53.6127 44.4017 50.9532 42.0564C45.8933 37.5941 39.261 34.8889 32 34.8889Z" fill="#2F80ED"/>
</g>
<defs>
<filter id="filter0_d" x="9.05219" y="4" width="49.8957" height="60" filterUnits="userSpaceOnUse" color-interpolation-filters="sRGB">
<feFlood flood-opacity="0" result="BackgroundImageFix"/>
<feColorMatrix in="SourceAlpha" type="matrix" values="0 0 0 0 0 0 0 0 0 0 0 0 0 0 0 0 0 0 127 0"/>
<feOffset dx="2" dy="2"/>
<feGaussianBlur stdDeviation="2"/>
<feColorMatrix type="matrix" values="0 0 0 0 0.0691472 0 0 0 0 0.0290278 0 0 0 0 0.183333 0 0 0 0.4 0"/>
<feBlend mode="normal" in2="BackgroundImageFix" result="effect1_dropShadow"/>
<feBlend mode="normal" in="SourceGraphic" in2="effect1_dropShadow" result="shape"/>
</filter>
</defs>
</svg>
