<svg width="64" height="64" viewBox="0 0 64 64" fill="none" xmlns="http://www.w3.org/2000/svg">
<g filter="url(#filter0_d)">
<path d="M34.5556 13C34.5556 10.7909 36.364 8.95916 38.5314 9.38636C46.6334 10.9832 53.0168 17.3666 54.6136 25.4686C55.0408 27.636 53.2091 29.4444 51 29.4444H38.5556C36.3464 29.4444 34.5556 27.6536 34.5556 25.4444V13Z" fill="#2F80ED"/>
<path d="M9 34.5556C9 24.6248 16.0805 16.3478 25.4686 14.4975C27.636 14.0703 29.4444 15.902 29.4444 18.1111V30.5556C29.4444 32.7647 31.2353 34.5556 33.4444 34.5556H45.8889C48.098 34.5556 49.9297 36.364 49.5025 38.5314C47.6522 47.9195 39.3752 55 29.4444 55C18.1533 55 9 45.8467 9 34.5556Z" fill="#2F80ED"/>
</g>
<defs>
<filter id="filter0_d" x="7" y="7.32422" width="53.6759" height="53.6759" filterUnits="userSpaceOnUse" color-interpolation-filters="sRGB">
<feFlood flood-opacity="0" result="BackgroundImageFix"/>
<feColorMatrix in="SourceAlpha" type="matrix" values="0 0 0 0 0 0 0 0 0 0 0 0 0 0 0 0 0 0 127 0"/>
<feOffset dx="2" dy="2"/>
<feGaussianBlur stdDeviation="2"/>
<feColorMatrix type="matrix" values="0 0 0 0 0.0691472 0 0 0 0 0.0290278 0 0 0 0 0.183333 0 0 0 0.4 0"/>
<feBlend mode="normal" in2="BackgroundImageFix" result="effect1_dropShadow"/>
<feBlend mode="normal" in="SourceGraphic" in2="effect1_dropShadow" result="shape"/>
</filter>
</defs>
</svg>
