<svg width="63" height="63" viewBox="0 0 63 63" fill="none" xmlns="http://www.w3.org/2000/svg">
<path d="M31.4717 62.801C48.853 62.801 62.9434 48.7425 62.9434 31.4005C62.9434 14.0585 48.853 0 31.4717 0C14.0904 0 0 14.0585 0 31.4005C0 48.7425 14.0904 62.801 31.4717 62.801Z" fill="white"/>
<path d="M48.9688 24.6302C48.8906 22.858 48.6033 21.6395 48.1917 20.5839C47.7672 19.4632 47.114 18.4599 46.2583 17.6259C45.4222 16.7789 44.4097 16.1207 43.2995 15.7038C42.235 15.2933 41.02 15.0067 39.2435 14.9286C37.4538 14.8438 36.8855 14.8242 32.346 14.8242C27.8066 14.8242 27.2383 14.8438 25.4553 14.9219C23.6788 15.0001 22.4573 15.2869 21.3993 15.6972C20.2757 16.1207 19.2699 16.7723 18.4338 17.6259C17.5847 18.4599 16.9253 19.4699 16.507 20.5774C16.0955 21.6395 15.8082 22.8513 15.7298 24.6235C15.6449 26.4088 15.6252 26.9756 15.6252 31.504C15.6252 36.0322 15.6449 36.5991 15.7232 38.3779C15.8015 40.15 16.0891 41.3683 16.5006 42.4242C16.9253 43.5448 17.5847 44.548 18.4338 45.3822C19.2699 46.2292 20.2822 46.8873 21.3926 47.3042C22.4573 47.7147 23.6721 48.0013 25.4488 48.0795C27.2318 48.1579 27.8001 48.1772 32.3397 48.1772C36.8791 48.1772 37.4473 48.1579 39.2305 48.0795C41.007 48.0013 42.2283 47.7147 43.2865 47.3042C45.5334 46.4376 47.31 44.6655 48.1787 42.4242C48.5899 41.362 48.8776 40.15 48.9558 38.3779C49.0342 36.5991 49.0538 36.0322 49.0538 31.504C49.0538 26.9756 49.0472 26.4088 48.9688 24.6302ZM45.958 38.2476C45.8859 39.8765 45.6118 40.7561 45.3832 41.3424C44.8212 42.7955 43.6653 43.9487 42.2086 44.5091C41.6208 44.7372 40.7327 45.0107 39.1062 45.0822C37.3427 45.1608 36.8138 45.18 32.3527 45.18C27.8915 45.18 27.3561 45.1608 25.5989 45.0822C23.9661 45.0107 23.0843 44.7372 22.4963 44.5091C21.7715 44.2419 21.1118 43.8183 20.5762 43.2645C20.0211 42.7238 19.5964 42.0721 19.3286 41.3491C19.1 40.7626 18.8257 39.8765 18.754 38.2541C18.6754 36.4949 18.6561 35.9672 18.6561 31.517C18.6561 27.0668 18.6754 26.5326 18.754 24.7801C18.8257 23.1512 19.1 22.2716 19.3286 21.6851C19.5964 20.9617 20.0211 20.3039 20.5829 19.7693C21.1248 19.2155 21.778 18.7921 22.503 18.5251C23.0908 18.2971 23.9792 18.0235 25.6055 17.9517C27.3691 17.8735 27.8982 17.8539 32.359 17.8539C36.8268 17.8539 37.3557 17.8735 39.1129 17.9517C40.7457 18.0235 41.6275 18.2971 42.2153 18.5251C42.9401 18.7921 43.6 19.2155 44.1356 19.7693C44.6907 20.3102 45.1152 20.9617 45.3832 21.6851C45.6118 22.2716 45.8859 23.1575 45.958 24.7801C46.0364 26.5393 46.0559 27.0668 46.0559 31.517C46.0559 35.9672 46.0364 36.4884 45.958 38.2476Z" fill="#6A7BE9"/>
<path d="M32.3459 22.9355C27.6042 22.9355 23.757 26.7732 23.757 31.5035C23.757 36.2339 27.6042 40.0715 32.3459 40.0715C37.0879 40.0715 40.935 36.2339 40.935 31.5035C40.935 26.7732 37.0879 22.9355 32.3459 22.9355ZM32.3459 37.0613C29.2697 37.0613 26.7744 34.5724 26.7744 31.5035C26.7744 28.4347 29.2697 25.9457 32.3459 25.9457C35.4224 25.9457 37.9175 28.4347 37.9175 31.5035C37.9175 34.5724 35.4224 37.0613 32.3459 37.0613Z" fill="#6A7BE9"/>
<path d="M43.28 22.596C43.28 23.7005 42.3821 24.5962 41.2747 24.5962C40.1673 24.5962 39.2695 23.7005 39.2695 22.596C39.2695 21.4912 40.1673 20.5957 41.2747 20.5957C42.3821 20.5957 43.28 21.4912 43.28 22.596Z" fill="#6A7BE9"/>
</svg>
