<svg width="64" height="64" viewBox="0 0 64 64" fill="none" xmlns="http://www.w3.org/2000/svg">
<g filter="url(#filter0_d)">
<path d="M21.3546 51.3216L28.1354 47.5805C30.5409 46.2533 33.4591 46.2533 35.8646 47.5805L42.6454 51.3216C49.1976 54.9366 56.599 48.4124 53.7052 41.5112C51.3647 35.9293 48.9322 30.3372 47 26.375C44.2468 20.7293 40.8966 15.1788 38.0612 10.8039C35.156 6.32132 28.844 6.32133 25.9388 10.8039C23.1034 15.1788 19.7532 20.7293 17 26.375C15.0678 30.3372 12.6353 35.9293 10.2948 41.5112C7.40102 48.4124 14.8024 54.9366 21.3546 51.3216Z" fill="#2F80ED"/>
</g>
<defs>
<filter id="filter0_d" x="5.6496" y="7.44189" width="52.7008" height="52.9103" filterUnits="userSpaceOnUse" color-interpolation-filters="sRGB">
<feFlood flood-opacity="0" result="BackgroundImageFix"/>
<feColorMatrix in="SourceAlpha" type="matrix" values="0 0 0 0 0 0 0 0 0 0 0 0 0 0 0 0 0 0 127 0"/>
<feOffset dy="4"/>
<feGaussianBlur stdDeviation="2"/>
<feColorMatrix type="matrix" values="0 0 0 0 0 0 0 0 0 0 0 0 0 0 0 0 0 0 0.25 0"/>
<feBlend mode="normal" in2="BackgroundImageFix" result="effect1_dropShadow"/>
<feBlend mode="normal" in="SourceGraphic" in2="effect1_dropShadow" result="shape"/>
</filter>
</defs>
</svg>
