<svg width="63" height="63" viewBox="0 0 63 63" fill="none" xmlns="http://www.w3.org/2000/svg">
<path d="M31.4717 62.801C48.853 62.801 62.9434 48.7425 62.9434 31.4005C62.9434 14.0585 48.853 0 31.4717 0C14.0904 0 0 14.0585 0 31.4005C0 48.7425 14.0904 62.801 31.4717 62.801Z" fill="white"/>
<path fill-rule="evenodd" clip-rule="evenodd" d="M29.7217 30.2764C29.7217 29.2947 28.9138 28.4987 27.9172 28.4987C26.9209 28.4987 26.1131 29.295 26.1131 30.2764C26.1131 31.2584 26.9209 32.0541 27.9172 32.0541C28.9138 32.0541 29.7217 31.2584 29.7217 30.2764ZM19.0861 48.4101C18.7091 48.4101 18.4038 48.7112 18.4038 49.0824C18.4038 49.4539 18.7094 49.7548 19.0861 49.7548C19.4631 49.7548 19.7682 49.4539 19.7682 49.0824C19.7682 48.711 19.4628 48.4101 19.0861 48.4101ZM38.3805 49.9053C37.9182 49.9053 37.5437 50.2746 37.5437 50.7299C37.5437 51.1854 37.9182 51.5547 38.3805 51.5547C38.8428 51.5547 39.2176 51.1852 39.2176 50.7299C39.2176 50.2743 38.8428 49.9053 38.3805 49.9053ZM30.9756 25.1076C30.0004 25.1076 29.2102 25.8866 29.2102 26.8474C29.2102 27.8077 30.0004 28.5869 30.9756 28.5869C31.9504 28.5869 32.741 27.8077 32.741 26.8474C32.741 25.8869 31.9507 25.1076 30.9756 25.1076ZM35.4769 30.0017C36.4306 30.0017 37.2039 29.2398 37.2039 28.3001C37.2039 27.3607 36.4306 26.5988 35.4769 26.5988C34.5235 26.5988 33.75 27.3605 33.75 28.3001C33.75 29.2398 34.5235 30.0017 35.4769 30.0017ZM38.5205 30.4148C37.5883 30.4148 36.8324 31.1597 36.8324 32.0782C36.8324 32.9967 37.5883 33.7416 38.5205 33.7416C39.4527 33.7416 40.2087 32.9964 40.2087 32.0782C40.2087 31.1597 39.4527 30.4148 38.5205 30.4148ZM38.3301 35.3031C37.4197 35.3031 36.681 36.0312 36.681 36.9286C36.681 37.8259 37.4197 38.5535 38.3301 38.5535C39.2409 38.5535 39.9798 37.8259 39.9798 36.9286C39.9798 36.0309 39.2409 35.3031 38.3301 35.3031ZM35.6567 38.9875C34.7671 38.9875 34.046 39.6981 34.046 40.5748C34.046 41.4513 34.7674 42.1618 35.6567 42.1618C36.5462 42.1618 37.2676 41.451 37.2676 40.5748C37.2676 39.6981 36.5465 38.9875 35.6567 38.9875ZM30.9776 40.5718C30.1095 40.5718 29.4057 41.265 29.4057 42.1206C29.4057 42.9759 30.1093 43.6694 30.9776 43.6694C31.8457 43.6694 32.5495 42.9759 32.5495 42.1206C32.5495 41.2653 31.8459 40.5718 30.9776 40.5718ZM26.3444 39.7665C25.4978 39.7665 24.811 40.443 24.811 41.2774C24.811 42.1119 25.4978 42.7883 26.3444 42.7883C27.1912 42.7883 27.8778 42.1119 27.8778 41.2774C27.8778 40.443 27.1912 39.7665 26.3444 39.7665ZM23.9624 38.9711C23.9624 38.1578 23.2931 37.4984 22.4677 37.4984C21.6423 37.4984 20.9731 38.1578 20.9731 38.9711C20.9731 39.7844 21.6423 40.4438 22.4677 40.4438C23.2931 40.4438 23.9624 39.7844 23.9624 38.9711ZM19.5826 33.9677C18.7787 33.9677 18.1265 34.6104 18.1265 35.4025C18.1265 36.1946 18.7787 36.8373 19.5826 36.8373C20.3866 36.8373 21.0388 36.1946 21.0388 35.4025C21.0388 34.6104 20.3866 33.9677 19.5826 33.9677ZM19.5876 31.1012C19.5876 30.3302 18.953 29.7046 18.1705 29.7046C17.3881 29.7046 16.7534 30.3302 16.7534 31.1012C16.7534 31.8722 17.3878 32.4975 18.1705 32.4975C18.9533 32.4975 19.5876 31.8722 19.5876 31.1012ZM18.3584 27.9947C19.1197 27.9947 19.737 27.3864 19.7373 26.636C19.7373 25.8859 19.1199 25.2776 18.3584 25.2776C17.5971 25.2776 16.9798 25.8859 16.9798 26.636C16.9798 27.3864 17.5971 27.9947 18.3584 27.9947ZM20.0987 23.8333C20.8385 23.8333 21.4385 23.2417 21.4385 22.5128C21.4385 21.7838 20.8387 21.1925 20.0987 21.1925C19.3586 21.1925 18.7588 21.7838 18.7588 22.5128C18.7588 23.242 19.3586 23.8333 20.0987 23.8333ZM23.4434 17.761C22.7251 17.761 22.1425 18.3347 22.1425 19.043C22.1425 19.7514 22.7251 20.3253 23.4434 20.3253C24.162 20.3253 24.7448 19.7511 24.7448 19.043C24.7448 18.335 24.162 17.761 23.4434 17.761ZM27.9447 18.2519C28.6419 18.2519 29.2074 17.6947 29.2074 17.0081C29.2074 16.3212 28.6419 15.764 27.9447 15.764C27.2479 15.764 26.6824 16.3212 26.6824 17.0081C26.6824 17.6947 27.2479 18.2519 27.9447 18.2519ZM32.699 17.9414C33.375 17.9414 33.9232 17.401 33.9232 16.7352C33.9232 16.0692 33.375 15.5293 32.699 15.5293C32.0234 15.5293 31.4754 16.0692 31.4754 16.7352C31.4754 17.4012 32.0234 17.9414 32.699 17.9414ZM37.2968 18.9475C37.951 18.9475 38.4822 18.4241 38.4822 17.7795C38.4822 17.1349 37.9513 16.6118 37.2968 16.6118C36.6423 16.6118 36.1117 17.1352 36.1117 17.7795C36.1117 18.4244 36.6423 18.9475 37.2968 18.9475ZM42.5357 19.9042C42.5357 19.2808 42.0226 18.7747 41.3893 18.7747C40.7561 18.7747 40.243 19.2805 40.243 19.9042C40.243 20.5282 40.7561 21.0338 41.3893 21.0338C42.0226 21.0338 42.5357 20.5282 42.5357 19.9042ZM45.8277 22.8871C45.8277 22.2843 45.3317 21.7955 44.7199 21.7955C44.1081 21.7955 43.612 22.2843 43.612 22.8871C43.612 23.4899 44.1081 23.9787 44.7199 23.9787C45.3319 23.9787 45.8277 23.4899 45.8277 22.8871ZM47.2424 27.7284C47.833 27.7284 48.3115 27.2567 48.3112 26.6753C48.3112 26.0933 47.833 25.6216 47.2424 25.6216C46.6521 25.6216 46.1733 26.0936 46.1733 26.6753C46.1733 27.2567 46.6521 27.7284 47.2424 27.7284ZM47.683 30.993C47.683 31.5538 48.1442 32.0085 48.7133 32.0085C49.2822 32.0085 49.744 31.5538 49.744 30.993C49.744 30.4322 49.2825 29.9777 48.7133 29.9777C48.1442 29.9777 47.683 30.4322 47.683 30.993ZM49.0081 34.8337C48.4605 34.8337 48.0165 35.2711 48.0165 35.8107C48.0165 36.3504 48.4605 36.7875 49.0081 36.7875C49.5558 36.7875 50.0003 36.3501 50 35.8107C50 35.2711 49.5558 34.8337 49.0081 34.8337ZM47.9958 39.5622C47.4696 39.5622 47.0426 39.9828 47.0426 40.5013C47.0426 41.0198 47.4696 41.4404 47.9958 41.4404C48.5219 41.4404 48.9489 41.0198 48.9489 40.5013C48.9489 39.9828 48.5219 39.5622 47.9958 39.5622ZM45.8271 43.7362C45.3221 43.7362 44.9127 44.1396 44.9127 44.6372C44.9127 45.1348 45.3221 45.5381 45.8271 45.5381C46.3323 45.5381 46.7417 45.1348 46.7414 44.6372C46.7414 44.1396 46.3321 43.7362 45.8271 43.7362ZM42.5093 47.3317C42.0255 47.3317 41.6334 47.718 41.6334 48.1947C41.6334 48.6714 42.0257 49.0577 42.5093 49.0577C42.9925 49.0577 43.3846 48.6714 43.3846 48.1947C43.3846 47.718 42.9925 47.3317 42.5093 47.3317ZM33.6626 51.3055C33.222 51.3055 32.8645 51.6582 32.8645 52.0924C32.8645 52.5265 33.2217 52.8787 33.6626 52.8787C34.1035 52.8787 34.4607 52.5268 34.4607 52.0924C34.4607 51.658 34.1035 51.3055 33.6626 51.3055ZM28.8325 51.4572C28.4131 51.4572 28.0729 51.7924 28.0729 52.2056C28.0729 52.6189 28.4131 52.9541 28.8325 52.9541C29.2518 52.9541 29.592 52.6189 29.592 52.2056C29.592 51.7924 29.2518 51.4572 28.8325 51.4572ZM24.3411 51.1315C24.3411 51.5236 24.0181 51.8418 23.6202 51.8418C23.2223 51.8418 22.8994 51.5236 22.8994 51.1315C22.8994 50.7394 23.2223 50.4213 23.6202 50.4213C24.0181 50.4213 24.3411 50.7394 24.3411 51.1315Z" fill="#677CEA"/>
<path opacity="0.9" fill-rule="evenodd" clip-rule="evenodd" d="M34.1018 31.8508C33.1052 31.8508 32.2973 32.647 32.2973 33.6285C32.2973 34.6102 33.1052 35.4062 34.1018 35.4062C35.0978 35.4062 35.9059 34.6102 35.9059 33.6285C35.9059 32.6468 35.0978 31.8508 34.1018 31.8508ZM42.9113 15.4733C43.288 15.4733 43.5934 15.1721 43.5934 14.8009C43.5934 14.4295 43.2878 14.1286 42.9113 14.1286C42.5346 14.1286 42.229 14.4295 42.229 14.8009C42.229 15.1724 42.5346 15.4733 42.9113 15.4733ZM23.6194 13.9793C24.0815 13.9793 24.4565 13.61 24.4565 13.1547C24.4565 12.6994 24.0817 12.3299 23.6194 12.3299C23.1573 12.3299 22.7823 12.6992 22.7823 13.1547C22.7823 13.6103 23.1571 13.9793 23.6194 13.9793ZM31.0232 35.2944C30.0481 35.2944 29.2575 36.0739 29.2578 37.034C29.2578 37.9948 30.0481 38.774 31.0232 38.774C31.9981 38.774 32.7886 37.9951 32.7886 37.034C32.7886 36.0739 31.9984 35.2944 31.0232 35.2944ZM26.5226 33.8822C25.5689 33.8822 24.7957 34.6441 24.7957 35.5835C24.7957 36.5234 25.5689 37.2853 26.5226 37.2853C27.4763 37.2853 28.2495 36.5234 28.2495 35.5835C28.2495 34.6441 27.4763 33.8822 26.5226 33.8822ZM25.1647 31.8025C25.1647 30.8839 24.4087 30.1391 23.4765 30.1391C22.5443 30.1391 21.7883 30.8837 21.7883 31.8025C21.7883 32.721 22.5443 33.4658 23.4765 33.4658C24.4087 33.4658 25.1647 32.721 25.1647 31.8025ZM23.6684 28.5783C24.5791 28.5783 25.3175 27.8505 25.3175 26.9528C25.3175 26.0552 24.5791 25.3276 23.6684 25.3276C22.7577 25.3276 22.0187 26.0552 22.0187 26.9528C22.0187 27.8505 22.7577 28.5783 23.6684 28.5783ZM26.3423 24.8944C27.2321 24.8944 27.9529 24.1838 27.9529 23.3071C27.9529 22.4306 27.2318 21.7201 26.3423 21.7201C25.4527 21.7201 24.7314 22.4309 24.7314 23.3071C24.7314 24.1838 25.4525 24.8944 26.3423 24.8944ZM31.0213 23.3103C31.8893 23.3103 32.5932 22.6171 32.5932 21.7615C32.5932 20.9062 31.8896 20.2127 31.0213 20.2127C30.1529 20.2127 29.4491 20.9062 29.4494 21.7615C29.4494 22.6168 30.1529 23.3103 31.0213 23.3103ZM35.6552 21.0928C34.8084 21.0928 34.1218 21.7693 34.1218 22.6037C34.1218 23.4382 34.8084 24.1146 35.6552 24.1146C36.5021 24.1146 37.1887 23.4382 37.1887 22.6037C37.1887 21.7693 36.5021 21.0928 35.6552 21.0928ZM38.0374 24.9126C38.0374 25.7259 38.7067 26.3853 39.5321 26.3853C40.3575 26.3853 41.0267 25.7259 41.0267 24.9126C41.0267 24.0993 40.3575 23.4399 39.5321 23.4399C38.7067 23.4399 38.0374 24.0993 38.0374 24.9126ZM42.4149 29.917C43.2189 29.917 43.8711 29.2744 43.8711 28.4822C43.8711 27.6898 43.2189 27.0474 42.4149 27.0474C41.611 27.0474 40.959 27.6898 40.959 28.4822C40.959 29.2744 41.611 29.917 42.4149 29.917ZM42.4111 32.7817C42.4111 33.5527 43.0455 34.1783 43.8283 34.1783C44.6107 34.1783 45.2457 33.5527 45.2457 32.7817C45.2457 32.0108 44.6107 31.3854 43.8283 31.3854C43.0458 31.3854 42.4111 32.0105 42.4111 32.7817ZM43.6411 35.8873C42.8796 35.8873 42.2625 36.4956 42.2625 37.246C42.2625 37.9958 42.8796 38.6044 43.6411 38.6044C44.4027 38.6044 45.0198 37.9958 45.0198 37.246C45.0198 36.4956 44.4027 35.8873 43.6411 35.8873ZM41.8997 40.0512C41.16 40.0512 40.5599 40.6428 40.5599 41.3717C40.5599 42.1007 41.16 42.692 41.8997 42.692C42.6398 42.692 43.2396 42.1007 43.2396 41.3717C43.2396 40.6425 42.6398 40.0512 41.8997 40.0512ZM38.5552 43.5597C37.8363 43.5597 37.2538 44.1336 37.2538 44.842C37.2538 45.5503 37.8366 46.1243 38.5552 46.1243C39.274 46.1243 39.8566 45.55 39.8566 44.842C39.8566 44.1336 39.2738 43.5597 38.5552 43.5597ZM34.0529 45.6315C33.3558 45.6315 32.7903 46.1885 32.7903 46.8754C32.7903 47.5623 33.3558 48.1195 34.0529 48.1195C34.7501 48.1195 35.3153 47.5623 35.3153 46.8754C35.3153 46.1887 34.7501 45.6315 34.0529 45.6315ZM29.3026 45.9411C28.6266 45.9411 28.079 46.481 28.079 47.1473C28.079 47.813 28.6266 48.3529 29.3026 48.3529C29.9782 48.3529 30.5265 47.8133 30.5265 47.1473C30.5265 46.481 29.9782 45.9411 29.3026 45.9411ZM24.7028 44.9355C24.0484 44.9355 23.5177 45.4589 23.5177 46.1035C23.5177 46.7481 24.0484 47.2712 24.7028 47.2712C25.3573 47.2712 25.888 46.7481 25.888 46.1035C25.888 45.4587 25.3573 44.9355 24.7028 44.9355ZM20.6105 42.8454C19.9772 42.8454 19.4639 43.351 19.4641 43.975C19.4641 44.5987 19.9772 45.1045 20.6105 45.1045C21.2438 45.1045 21.7569 44.5987 21.7569 43.975C21.7569 43.351 21.2438 42.8454 20.6105 42.8454ZM17.2807 39.9035C16.6692 39.9035 16.1728 40.3923 16.1728 40.9952C16.1728 41.598 16.6692 42.0868 17.2807 42.0868C17.8925 42.0868 18.3886 41.598 18.3886 40.9952C18.3886 40.3923 17.8925 39.9035 17.2807 39.9035ZM14.7556 36.1564C14.165 36.1564 13.6865 36.6284 13.6865 37.2095C13.6865 37.7915 14.1653 38.263 14.7556 38.263C15.3457 38.263 15.8245 37.7915 15.8245 37.2095C15.8245 36.6284 15.3457 36.1564 14.7556 36.1564ZM14.3158 32.8906C14.3158 32.3298 13.854 31.8751 13.2852 31.8751C12.7163 31.8751 12.2548 32.3298 12.2545 32.8906C12.2545 33.4514 12.716 33.9058 13.2852 33.9058C13.8543 33.9058 14.3158 33.4511 14.3158 32.8906ZM12.9916 29.0498C13.5393 29.0498 13.9832 28.6124 13.9832 28.0728C13.9832 27.5331 13.5393 27.096 12.9916 27.096C12.4439 27.096 12 27.5334 12 28.0728C12 28.6124 12.4439 29.0498 12.9916 29.0498ZM14.0034 24.3183C14.5295 24.3183 14.9565 23.898 14.9565 23.3795C14.9565 22.861 14.5295 22.4404 14.0034 22.4404C13.4772 22.4404 13.0505 22.861 13.0502 23.3795C13.0502 23.8977 13.4772 24.3183 14.0034 24.3183ZM17.0852 19.2461C17.0852 18.7485 16.6759 18.3452 16.1709 18.3452C15.6659 18.3452 15.2565 18.7485 15.2565 19.2461C15.2565 19.7437 15.6659 20.1471 16.1709 20.1471C16.6759 20.1471 17.0852 19.7437 17.0852 19.2461ZM20.3674 15.6876C20.3674 15.2109 19.9756 14.8246 19.4921 14.8246C19.0085 14.8246 18.6162 15.2109 18.6162 15.6876C18.6162 16.1644 19.0085 16.5507 19.4921 16.5507C19.9756 16.5507 20.3674 16.1644 20.3674 15.6876ZM28.3359 12.5779C28.7765 12.5779 29.134 12.2254 29.134 11.791C29.134 11.3569 28.7767 11.0046 28.3359 11.0046C27.895 11.0046 27.5378 11.3566 27.5378 11.791C27.5378 12.2254 27.895 12.5779 28.3359 12.5779ZM33.1668 12.4246C33.5862 12.4246 33.9266 12.0894 33.9266 11.6762C33.9266 11.2629 33.5862 10.9277 33.1668 10.9277C32.7474 10.9277 32.4072 11.2629 32.4072 11.6762C32.4072 12.0894 32.7474 12.4246 33.1668 12.4246ZM37.6583 12.7508C37.6583 12.3587 37.9812 12.0406 38.3791 12.0406C38.7773 12.0406 39.1 12.3587 39.1 12.7508C39.1 13.1429 38.7773 13.4611 38.3791 13.4611C37.9812 13.4611 37.6583 13.1429 37.6583 12.7508Z" fill="#677CEA"/>
</svg>
