<svg width="63" height="63" viewBox="0 0 63 63" fill="none" xmlns="http://www.w3.org/2000/svg">
<path d="M31.4717 62.801C48.853 62.801 62.9434 48.7425 62.9434 31.4005C62.9434 14.0585 48.853 0 31.4717 0C14.0904 0 0 14.0585 0 31.4005C0 48.7425 14.0904 62.801 31.4717 62.801Z" fill="white"/>
<path d="M16.2917 30.8397L23.5435 33.54L26.3504 42.5464C26.53 43.1232 27.2368 43.3365 27.7061 42.9536L31.7483 39.6658C32.172 39.3213 32.7755 39.3043 33.2185 39.625L40.509 44.9063C41.011 45.2702 41.7223 44.9958 41.848 44.3906L47.189 18.7583C47.3264 18.0972 46.6753 17.5457 46.0444 17.7891L16.2832 29.2441C15.5488 29.5267 15.5552 30.5641 16.2917 30.8397ZM25.898 32.1025L40.0706 23.3934C40.3252 23.2372 40.5872 23.581 40.3685 23.7833L28.672 34.6312C28.261 35.0131 27.9958 35.5241 27.9206 36.0787L27.5222 39.0247C27.4695 39.4181 26.9157 39.4571 26.8069 39.0764L25.2745 33.7043C25.099 33.0916 25.3548 32.4371 25.898 32.1025Z" fill="#6A7BE9"/>
</svg>
