<svg width="63" height="63" viewBox="0 0 63 63" fill="none" xmlns="http://www.w3.org/2000/svg">
<path d="M31.4005 62.801C48.7425 62.801 62.801 48.7425 62.801 31.4005C62.801 14.0585 48.7425 0 31.4005 0C14.0585 0 0 14.0585 0 31.4005C0 48.7425 14.0585 62.801 31.4005 62.801Z" fill="white"/>
<path d="M47.1008 21.6661C45.9452 22.1783 44.705 22.5255 43.4022 22.6806C44.7324 21.884 45.7508 20.6203 46.2335 19.1193C44.9855 19.8571 43.608 20.3928 42.1403 20.6832C40.965 19.4293 39.2933 18.6484 37.439 18.6484C33.8816 18.6484 30.9973 21.5327 30.9973 25.0881C30.9973 25.5925 31.0542 26.085 31.1641 26.5559C25.8113 26.287 21.0648 23.7225 17.8881 19.8256C17.3328 20.7754 17.0169 21.882 17.0169 23.0633C17.0169 25.2981 18.1549 27.2702 19.8817 28.4238C18.8261 28.3886 17.8331 28.0981 16.9639 27.6154V27.696C16.9639 30.8158 19.1852 33.4195 22.1302 34.0121C21.5907 34.1574 21.0216 34.2378 20.4331 34.2378C20.0171 34.2378 19.6149 34.1965 19.2204 34.1181C20.0407 36.6787 22.4187 38.5407 25.2365 38.5918C23.033 40.3186 20.2545 41.3447 17.2367 41.3447C16.7167 41.3447 16.2046 41.3132 15.7003 41.2564C18.5513 43.0871 21.936 44.1545 25.5739 44.1545C37.4235 44.1545 43.9006 34.3399 43.9006 25.828L43.8789 24.994C45.1445 24.0915 46.2394 22.9573 47.1008 21.6661Z" fill="#6A7BE9"/>
</svg>
