<svg width="60" height="63" viewBox="0 0 60 63" fill="none" xmlns="http://www.w3.org/2000/svg">
<path d="M29.9052 62.801C46.4213 62.801 59.8103 48.7425 59.8103 31.4005C59.8103 14.0585 46.4213 0 29.9052 0C13.389 0 0 14.0585 0 31.4005C0 48.7425 13.389 62.801 29.9052 62.801Z" fill="white"/>
<path d="M44.6993 38.621C44.6631 38.5391 44.6294 38.4711 44.5981 38.4166C44.0791 37.4355 43.0876 36.2311 41.6241 34.8032L41.5932 34.7706L41.5776 34.7545L41.562 34.738H41.5463C40.882 34.0731 40.4614 33.6262 40.2852 33.3972C39.9629 32.9612 39.8907 32.52 40.0669 32.0727C40.1914 31.7349 40.6589 31.0214 41.4683 29.9313C41.8941 29.3535 42.2311 28.8905 42.4802 28.5417C44.2762 26.0347 45.0548 24.4328 44.8158 23.7352L44.7232 23.5722C44.6607 23.474 44.4999 23.3841 44.2406 23.3024C43.9809 23.2207 43.6488 23.2071 43.244 23.2616L38.7596 23.294C38.687 23.267 38.5834 23.2696 38.4482 23.3024C38.3133 23.335 38.2456 23.3515 38.2456 23.3515L38.1676 23.3924L38.1057 23.4415C38.0539 23.4741 37.9968 23.5314 37.9344 23.6131C37.8723 23.6946 37.8206 23.7902 37.7791 23.8992C37.2908 25.2179 36.7357 26.4442 36.1127 27.5777C35.7288 28.2534 35.376 28.8393 35.0538 29.3352C34.7321 29.831 34.4623 30.1962 34.2444 30.4304C34.0263 30.6648 33.8293 30.8526 33.6526 30.9945C33.476 31.1362 33.3413 31.1963 33.2479 31.1744C33.1545 31.1524 33.0663 31.1307 32.9829 31.1088C32.8378 31.0108 32.7209 30.8772 32.6329 30.7084C32.5443 30.5394 32.4849 30.3267 32.4537 30.0706C32.4228 29.8143 32.4044 29.5938 32.3992 29.4086C32.3942 29.2234 32.3966 28.9614 32.407 28.6236C32.418 28.2857 32.4228 28.057 32.4228 27.9369C32.4228 27.5228 32.4304 27.0733 32.4459 26.5882C32.4615 26.1031 32.4743 25.719 32.4849 25.4358C32.4954 25.1523 32.5004 24.8525 32.5004 24.5364C32.5004 24.2203 32.4821 23.9726 32.4459 23.7927C32.4102 23.6129 32.3551 23.4384 32.2829 23.2694C32.2101 23.1004 32.1035 22.9698 31.9636 22.8769C31.8235 22.7843 31.6494 22.7109 31.442 22.6562C30.8919 22.5254 30.1911 22.4547 29.3399 22.4437C27.4093 22.422 26.1687 22.5529 25.6186 22.8364C25.4005 22.9561 25.2033 23.1197 25.0269 23.3266C24.84 23.5664 24.8139 23.6974 24.9489 23.7189C25.5717 23.8169 26.0127 24.0511 26.2723 24.4217L26.3659 24.6181C26.4385 24.7597 26.5112 25.0106 26.584 25.3703C26.6564 25.7299 26.7033 26.1275 26.7239 26.5634C26.7758 27.3592 26.7758 28.0403 26.7239 28.607C26.672 29.174 26.6229 29.6153 26.576 29.9315C26.5291 30.2474 26.4591 30.5036 26.3659 30.6997C26.2723 30.8959 26.2101 31.0158 26.1789 31.0593C26.1478 31.1029 26.1219 31.1303 26.1011 31.1411C25.9662 31.1953 25.8259 31.223 25.6807 31.223C25.5352 31.223 25.3588 31.1466 25.1513 30.9939C24.9438 30.8412 24.7284 30.6315 24.5052 30.3645C24.2821 30.0973 24.0303 29.7241 23.7499 29.2446C23.4697 28.765 23.179 28.1984 22.8781 27.5443L22.6289 27.0701C22.4732 26.765 22.2605 26.3208 21.9907 25.7379C21.7206 25.1546 21.4819 24.5903 21.2744 24.0454C21.1914 23.8166 21.0668 23.6424 20.9008 23.5223L20.8228 23.4732C20.7709 23.4297 20.6879 23.3835 20.5738 23.3342C20.4594 23.2851 20.3403 23.2497 20.2156 23.2281L15.9493 23.2607C15.5134 23.2607 15.2176 23.3643 15.0618 23.5714L14.9995 23.6694C14.9683 23.7239 14.9526 23.8112 14.9526 23.9311C14.9526 24.051 14.9838 24.1981 15.0461 24.3724C15.6689 25.9093 16.3462 27.3916 17.078 28.8193C17.8097 30.2472 18.4457 31.3973 18.9852 32.2688C19.525 33.1407 20.0751 33.9638 20.6357 34.7374C21.1964 35.5114 21.5673 36.0072 21.7489 36.2252C21.9307 36.4434 22.0734 36.6067 22.1773 36.7156L22.5666 37.1079C22.8156 37.3695 23.1814 37.6829 23.6643 38.0479C24.147 38.4133 24.6816 38.7729 25.268 39.1274C25.8547 39.4813 26.5369 39.7702 27.3157 39.9935C28.0941 40.2171 28.8518 40.3068 29.5889 40.2636H31.3796C31.7427 40.2307 32.0177 40.1108 32.2049 39.9038L32.2668 39.8219C32.3085 39.7569 32.3474 39.6557 32.3835 39.5197C32.4198 39.3835 32.438 39.2334 32.438 39.0702C32.4274 38.6015 32.4613 38.1793 32.539 37.8033C32.6166 37.4273 32.705 37.144 32.8039 36.9532C32.9029 36.7625 33.0144 36.6015 33.1386 36.471C33.2631 36.3404 33.3517 36.2613 33.4037 36.2339C33.4554 36.2064 33.4967 36.1879 33.5279 36.1768C33.7769 36.0895 34.0702 36.174 34.4078 36.4303C34.7453 36.6865 35.0617 37.0028 35.3578 37.3786C35.6536 37.7548 36.0091 38.1769 36.4242 38.6455C36.8396 39.1143 37.2028 39.4626 37.5141 39.692L37.8254 39.888C38.0333 40.0191 38.3033 40.1389 38.6355 40.2479C38.967 40.3568 39.2575 40.3841 39.5071 40.3296L43.493 40.2644C43.8873 40.2644 44.194 40.1958 44.4117 40.0598C44.6296 39.9236 44.7591 39.7735 44.801 39.6103C44.8427 39.4469 44.8449 39.2614 44.8088 39.054C44.7719 38.8472 44.7356 38.7027 44.6993 38.621Z" fill="#6A7BE9"/>
</svg>
